<?xml version="1.0" encoding="UTF-8" standalone="no"?>
<!DOCTYPE svg PUBLIC "-//W3C//DTD SVG 1.1//EN"
 "http://www.w3.org/Graphics/SVG/1.1/DTD/svg11.dtd">
<!-- Generated by graphviz version 2.38.0 (20140413.2041)
 -->
<!-- Title: G Pages: 1 -->
<svg width="644pt" height="246pt"
 viewBox="0.00 0.00 644.29 246.00" xmlns="http://www.w3.org/2000/svg" xmlns:xlink="http://www.w3.org/1999/xlink">
<g id="graph0" class="graph" transform="scale(1 1) rotate(0) translate(4 242)">
<title>G</title>
<polygon fill="white" stroke="none" points="-4,4 -4,-242 640.287,-242 640.287,4 -4,4"/>
<g id="clust1" class="cluster"><title>cluster_Global</title>
<path fill="none" stroke="gray" d="M156.834,-8C156.834,-8 616.287,-8 616.287,-8 622.287,-8 628.287,-14 628.287,-20 628.287,-20 628.287,-218 628.287,-218 628.287,-224 622.287,-230 616.287,-230 616.287,-230 156.834,-230 156.834,-230 150.834,-230 144.834,-224 144.834,-218 144.834,-218 144.834,-20 144.834,-20 144.834,-14 150.834,-8 156.834,-8"/>
<text text-anchor="middle" x="386.56" y="-217.2" font-family="Times,serif" font-size="11.00" fill="gray">Global</text>
</g>
<g id="clust2" class="cluster"><title>cluster_\Gorkaio</title>
<path fill="none" stroke="gray" d="M164.834,-16C164.834,-16 608.287,-16 608.287,-16 614.287,-16 620.287,-22 620.287,-28 620.287,-28 620.287,-191 620.287,-191 620.287,-197 614.287,-203 608.287,-203 608.287,-203 164.834,-203 164.834,-203 158.834,-203 152.834,-197 152.834,-191 152.834,-191 152.834,-28 152.834,-28 152.834,-22 158.834,-16 164.834,-16"/>
<text text-anchor="middle" x="386.56" y="-190.2" font-family="Times,serif" font-size="11.00" fill="gray">Gorkaio</text>
</g>
<g id="clust3" class="cluster"><title>cluster_\Gorkaio\Pimp</title>
<path fill="none" stroke="gray" d="M172.834,-24C172.834,-24 600.287,-24 600.287,-24 606.287,-24 612.287,-30 612.287,-36 612.287,-36 612.287,-164 612.287,-164 612.287,-170 606.287,-176 600.287,-176 600.287,-176 172.834,-176 172.834,-176 166.834,-176 160.834,-170 160.834,-164 160.834,-164 160.834,-36 160.834,-36 160.834,-30 166.834,-24 172.834,-24"/>
<text text-anchor="middle" x="386.56" y="-163.2" font-family="Times,serif" font-size="11.00" fill="gray">Pimp</text>
</g>
<g id="clust4" class="cluster"><title>cluster_\Gorkaio\Pimp\Exceptions</title>
<path fill="none" stroke="gray" d="M202.539,-78C202.539,-78 592.287,-78 592.287,-78 598.287,-78 604.287,-84 604.287,-90 604.287,-90 604.287,-137 604.287,-137 604.287,-143 598.287,-149 592.287,-149 592.287,-149 202.539,-149 202.539,-149 196.539,-149 190.539,-143 190.539,-137 190.539,-137 190.539,-90 190.539,-90 190.539,-84 196.539,-78 202.539,-78"/>
<text text-anchor="middle" x="397.413" y="-136.2" font-family="Times,serif" font-size="11.00" fill="gray">Exceptions</text>
</g>
<!-- \\Gorkaio\\Pimp\\Exceptions\\ServiceException -->
<g id="node1" class="node"><title>\\Gorkaio\\Pimp\\Exceptions\\ServiceException</title>
<polygon fill="none" stroke="black" points="319.965,-122 198.73,-122 198.73,-86 319.965,-86 319.965,-122"/>
<text text-anchor="middle" x="259.347" y="-100.7" font-family="Courier,monospace" font-size="11.00">ServiceException</text>
</g>
<!-- \\Exception -->
<g id="node5" class="node"><title>\\Exception</title>
<ellipse fill="none" stroke="black" cx="48.417" cy="-104" rx="48.3341" ry="18"/>
<text text-anchor="middle" x="48.417" y="-99.8" font-family="Times,serif" font-size="14.00" fill="gray">\Exception</text>
</g>
<!-- \\Gorkaio\\Pimp\\Exceptions\\ServiceException&#45;&gt;\\Exception -->
<g id="edge1" class="edge"><title>\\Gorkaio\\Pimp\\Exceptions\\ServiceException&#45;&gt;\\Exception</title>
<path fill="none" stroke="black" d="M198.476,-104C169.802,-104 135.609,-104 107.21,-104"/>
<polygon fill="none" stroke="black" points="107.03,-100.5 97.0297,-104 107.03,-107.5 107.03,-100.5"/>
</g>
<!-- \\Gorkaio\\Pimp\\Exceptions\\ServiceNotFoundException -->
<g id="node2" class="node"><title>\\Gorkaio\\Pimp\\Exceptions\\ServiceNotFoundException</title>
<polygon fill="none" stroke="black" points="596.5,-122 421.647,-122 421.647,-86 596.5,-86 596.5,-122"/>
<text text-anchor="middle" x="509.074" y="-100.7" font-family="Courier,monospace" font-size="11.00">ServiceNotFoundException</text>
</g>
<!-- \\Gorkaio\\Pimp\\Exceptions\\ServiceNotFoundException&#45;&gt;\\Gorkaio\\Pimp\\Exceptions\\ServiceException -->
<g id="edge3" class="edge"><title>\\Gorkaio\\Pimp\\Exceptions\\ServiceNotFoundException&#45;&gt;\\Gorkaio\\Pimp\\Exceptions\\ServiceException</title>
<path fill="none" stroke="black" d="M421.779,-104C391.932,-104 358.87,-104 330.48,-104"/>
<polygon fill="none" stroke="black" points="330.246,-100.5 320.246,-104 330.246,-107.5 330.246,-100.5"/>
</g>
<!-- \\Gorkaio\\Pimp\\Container -->
<g id="node3" class="node"><title>\\Gorkaio\\Pimp\\Container</title>
<polygon fill="none" stroke="black" points="546.985,-68 471.163,-68 471.163,-32 546.985,-32 546.985,-68"/>
<text text-anchor="middle" x="509.074" y="-46.7" font-family="Courier,monospace" font-size="11.00">Container</text>
</g>
<!-- \\Gorkaio\\Pimp\\ServiceContainerInterface -->
<g id="node4" class="node"><title>\\Gorkaio\\Pimp\\ServiceContainerInterface</title>
<polygon fill="none" stroke="black" points="349.874,-68 168.821,-68 168.821,-32 349.874,-32 349.874,-68"/>
<text text-anchor="middle" x="259.347" y="-46.7" font-family="Courier,monospace" font-size="11.00">ServiceContainerInterface</text>
</g>
<!-- \\Gorkaio\\Pimp\\Container&#45;&gt;\\Gorkaio\\Pimp\\ServiceContainerInterface -->
<g id="edge2" class="edge"><title>\\Gorkaio\\Pimp\\Container&#45;&gt;\\Gorkaio\\Pimp\\ServiceContainerInterface</title>
<path fill="none" stroke="black" stroke-dasharray="1,5" d="M471.254,-50C441.869,-50 399.266,-50 360.032,-50"/>
<polygon fill="none" stroke="black" points="359.873,-46.5001 349.873,-50 359.873,-53.5001 359.873,-46.5001"/>
</g>
</g>
</svg>
