<?xml version="1.0" encoding="UTF-8" standalone="no"?>
<!DOCTYPE svg PUBLIC "-//W3C//DTD SVG 1.1//EN"
 "http://www.w3.org/Graphics/SVG/1.1/DTD/svg11.dtd">
<!-- Generated by graphviz version 2.38.0 (20140413.2041)
 -->
<!-- Title: G Pages: 1 -->
<svg width="644pt" height="354pt"
 viewBox="0.00 0.00 644.29 354.00" xmlns="http://www.w3.org/2000/svg" xmlns:xlink="http://www.w3.org/1999/xlink">
<g id="graph0" class="graph" transform="scale(1 1) rotate(0) translate(4 350)">
<title>G</title>
<polygon fill="white" stroke="none" points="-4,4 -4,-350 640.287,-350 640.287,4 -4,4"/>
<g id="clust1" class="cluster"><title>cluster_Global</title>
<path fill="none" stroke="gray" d="M156.834,-8C156.834,-8 616.287,-8 616.287,-8 622.287,-8 628.287,-14 628.287,-20 628.287,-20 628.287,-326 628.287,-326 628.287,-332 622.287,-338 616.287,-338 616.287,-338 156.834,-338 156.834,-338 150.834,-338 144.834,-332 144.834,-326 144.834,-326 144.834,-20 144.834,-20 144.834,-14 150.834,-8 156.834,-8"/>
<text text-anchor="middle" x="386.56" y="-325.2" font-family="Times,serif" font-size="11.00" fill="gray">Global</text>
</g>
<g id="clust2" class="cluster"><title>cluster_\Gorkaio</title>
<path fill="none" stroke="gray" d="M164.834,-16C164.834,-16 608.287,-16 608.287,-16 614.287,-16 620.287,-22 620.287,-28 620.287,-28 620.287,-299 620.287,-299 620.287,-305 614.287,-311 608.287,-311 608.287,-311 164.834,-311 164.834,-311 158.834,-311 152.834,-305 152.834,-299 152.834,-299 152.834,-28 152.834,-28 152.834,-22 158.834,-16 164.834,-16"/>
<text text-anchor="middle" x="386.56" y="-298.2" font-family="Times,serif" font-size="11.00" fill="gray">Gorkaio</text>
</g>
<g id="clust3" class="cluster"><title>cluster_\Gorkaio\Pimp</title>
<path fill="none" stroke="gray" d="M172.834,-24C172.834,-24 600.287,-24 600.287,-24 606.287,-24 612.287,-30 612.287,-36 612.287,-36 612.287,-272 612.287,-272 612.287,-278 606.287,-284 600.287,-284 600.287,-284 172.834,-284 172.834,-284 166.834,-284 160.834,-278 160.834,-272 160.834,-272 160.834,-36 160.834,-36 160.834,-30 166.834,-24 172.834,-24"/>
<text text-anchor="middle" x="386.56" y="-271.2" font-family="Times,serif" font-size="11.00" fill="gray">Pimp</text>
</g>
<g id="clust4" class="cluster"><title>cluster_\Gorkaio\Pimp\Exceptions</title>
<path fill="none" stroke="gray" d="M202.539,-132C202.539,-132 592.287,-132 592.287,-132 598.287,-132 604.287,-138 604.287,-144 604.287,-144 604.287,-245 604.287,-245 604.287,-251 598.287,-257 592.287,-257 592.287,-257 202.539,-257 202.539,-257 196.539,-257 190.539,-251 190.539,-245 190.539,-245 190.539,-144 190.539,-144 190.539,-138 196.539,-132 202.539,-132"/>
<text text-anchor="middle" x="397.413" y="-244.2" font-family="Times,serif" font-size="11.00" fill="gray">Exceptions</text>
</g>
<!-- \\Gorkaio\\Pimp\\Exceptions\\InvalidConfigException -->
<g id="node1" class="node"><title>\\Gorkaio\\Pimp\\Exceptions\\InvalidConfigException</title>
<polygon fill="none" stroke="black" points="589.798,-176 428.35,-176 428.35,-140 589.798,-140 589.798,-176"/>
<text text-anchor="middle" x="509.074" y="-154.7" font-family="Courier,monospace" font-size="11.00">InvalidConfigException</text>
</g>
<!-- \\Exception -->
<g id="node7" class="node"><title>\\Exception</title>
<ellipse fill="none" stroke="black" cx="48.417" cy="-123" rx="48.3341" ry="18"/>
<text text-anchor="middle" x="48.417" y="-118.8" font-family="Times,serif" font-size="14.00" fill="gray">\Exception</text>
</g>
<!-- \\Gorkaio\\Pimp\\Exceptions\\InvalidConfigException&#45;&gt;\\Exception -->
<g id="edge1" class="edge"><title>\\Gorkaio\\Pimp\\Exceptions\\InvalidConfigException&#45;&gt;\\Exception</title>
<path fill="none" stroke="black" d="M429.907,-139.833C427.155,-138.632 424.464,-137.356 421.861,-136 384.411,-116.485 389.45,-88.6965 349.861,-74 264.434,-42.2877 233.405,-52.587 144.834,-74 122.33,-79.4406 99.179,-91.1539 81.3174,-101.764"/>
<polygon fill="none" stroke="black" points="79.1885,-98.9636 72.4906,-107.173 82.8458,-104.932 79.1885,-98.9636"/>
</g>
<!-- \\Gorkaio\\Pimp\\Exceptions\\ServiceException -->
<g id="node2" class="node"><title>\\Gorkaio\\Pimp\\Exceptions\\ServiceException</title>
<polygon fill="none" stroke="black" points="319.965,-204 198.73,-204 198.73,-168 319.965,-168 319.965,-204"/>
<text text-anchor="middle" x="259.347" y="-182.7" font-family="Courier,monospace" font-size="11.00">ServiceException</text>
</g>
<!-- \\Gorkaio\\Pimp\\Exceptions\\ServiceException&#45;&gt;\\Exception -->
<g id="edge2" class="edge"><title>\\Gorkaio\\Pimp\\Exceptions\\ServiceException&#45;&gt;\\Exception</title>
<path fill="none" stroke="black" d="M198.546,-176.895C181.044,-173.565 162.005,-169.286 144.834,-164 125.496,-158.047 104.778,-149.435 87.604,-141.639"/>
<polygon fill="none" stroke="black" points="89.0052,-138.43 78.4593,-137.413 86.0691,-144.785 89.0052,-138.43"/>
</g>
<!-- \\Gorkaio\\Pimp\\Exceptions\\ServiceNotFoundException -->
<g id="node3" class="node"><title>\\Gorkaio\\Pimp\\Exceptions\\ServiceNotFoundException</title>
<polygon fill="none" stroke="black" points="596.5,-230 421.647,-230 421.647,-194 596.5,-194 596.5,-230"/>
<text text-anchor="middle" x="509.074" y="-208.7" font-family="Courier,monospace" font-size="11.00">ServiceNotFoundException</text>
</g>
<!-- \\Gorkaio\\Pimp\\Exceptions\\ServiceNotFoundException&#45;&gt;\\Gorkaio\\Pimp\\Exceptions\\ServiceException -->
<g id="edge4" class="edge"><title>\\Gorkaio\\Pimp\\Exceptions\\ServiceNotFoundException&#45;&gt;\\Gorkaio\\Pimp\\Exceptions\\ServiceException</title>
<path fill="none" stroke="black" d="M421.779,-202.943C391.932,-199.81 358.87,-196.34 330.48,-193.361"/>
<polygon fill="none" stroke="black" points="330.557,-189.85 320.246,-192.287 329.826,-196.811 330.557,-189.85"/>
</g>
<!-- \\Gorkaio\\Pimp\\Container -->
<g id="node4" class="node"><title>\\Gorkaio\\Pimp\\Container</title>
<polygon fill="none" stroke="black" points="546.985,-122 471.163,-122 471.163,-86 546.985,-86 546.985,-122"/>
<text text-anchor="middle" x="509.074" y="-100.7" font-family="Courier,monospace" font-size="11.00">Container</text>
</g>
<!-- \\Gorkaio\\Pimp\\ServiceContainerInterface -->
<g id="node6" class="node"><title>\\Gorkaio\\Pimp\\ServiceContainerInterface</title>
<polygon fill="none" stroke="black" points="349.874,-124 168.821,-124 168.821,-88 349.874,-88 349.874,-124"/>
<text text-anchor="middle" x="259.347" y="-102.7" font-family="Courier,monospace" font-size="11.00">ServiceContainerInterface</text>
</g>
<!-- \\Gorkaio\\Pimp\\Container&#45;&gt;\\Gorkaio\\Pimp\\ServiceContainerInterface -->
<g id="edge3" class="edge"><title>\\Gorkaio\\Pimp\\Container&#45;&gt;\\Gorkaio\\Pimp\\ServiceContainerInterface</title>
<path fill="none" stroke="black" stroke-dasharray="1,5" d="M471.254,-104.297C441.869,-104.535 399.266,-104.878 360.032,-105.195"/>
<polygon fill="none" stroke="black" points="359.845,-101.697 349.873,-105.277 359.901,-108.696 359.845,-101.697"/>
</g>
<!-- \\Gorkaio\\Pimp\\ConfigValidator -->
<g id="node5" class="node"><title>\\Gorkaio\\Pimp\\ConfigValidator</title>
<polygon fill="none" stroke="black" points="566.59,-68 451.558,-68 451.558,-32 566.59,-32 566.59,-68"/>
<text text-anchor="middle" x="509.074" y="-46.7" font-family="Courier,monospace" font-size="11.00">ConfigValidator</text>
</g>
</g>
</svg>
